<svg width="24" height="24" viewBox="0 0 24 24" fill="none" xmlns="http://www.w3.org/2000/svg">
<rect width="24" height="24" rx="12" fill="#C6D8E2"/>
<path d="M17.0644 5C16.569 5 16.0736 5.18865 15.6955 5.56681L14.8934 6.3689L17.6312 9.10668L18.4333 8.3046C19.1889 7.54897 19.1889 6.32313 18.4333 5.56682C18.0551 5.18866 17.5597 5 17.0644 5ZM13.8667 7.39556L7.36444 13.8978C7.36444 13.8978 8.05231 13.9012 8.39111 14.24C8.72992 14.5788 8.72265 15.256 8.72265 15.256C8.72265 15.256 9.42052 15.2694 9.76002 15.6089C10.0995 15.9484 10.1022 16.6356 10.1022 16.6356L16.6045 10.1333L13.8667 7.39556ZM6.45407 15.2667L6.0049 17.6649C5.96862 17.8607 6.13934 18.0314 6.33509 17.9951L8.73334 17.5459L6.45407 15.2667Z" fill="#0983F3"/>
</svg>
